<?xml version="1.0" standalone="no"?><svg xmlns="http://www.w3.org/2000/svg" viewBox="0 0 1440 320"><path fill="#474757" fill-opacity="1" d="M0,64L34.3,101.3C68.6,139,137,213,206,213.3C274.3,213,343,139,411,138.7C480,139,549,213,617,208C685.7,203,754,117,823,106.7C891.4,96,960,160,1029,176C1097.1,192,1166,160,1234,154.7C1302.9,149,1371,171,1406,181.3L1440,192L1440,320L1405.7,320C1371.4,320,1303,320,1234,320C1165.7,320,1097,320,1029,320C960,320,891,320,823,320C754.3,320,686,320,617,320C548.6,320,480,320,411,320C342.9,320,274,320,206,320C137.1,320,69,320,34,320L0,320Z"></path></svg>